# AST/ASF file generated using VICON BodyLanguage
# -----------------------------------------------
:version 1.10
:name VICON
:units
  mass 1.0
  length 0.45
  angle deg
:documentation
   .ast/.asf automatically generated from VICON data using
   VICON BodyBuilder and BodyLanguage model FoxedUp or BRILLIANT.MOD
:root
   order TX TY TZ RX RY RZ
   axis XYZ
   position 0 0 0  
   orientation 0 0 0 
:bonedata
  begin
     id 1 
     name lhipjoint
     direction 0.522423 -0.726805 0.445902 
     length 2.25074 
     axis 0 0 0  XYZ
  end
  begin
     id 2 
     name lfemur
     direction 0.34202 -0.939693 0  
     length 6.54609  
     axis 0 0 20  XYZ
    dof rx ry rz
    limits (-160.0 20.0)
           (-70.0 70.0)
           (-60.0 70.0)
  end
  begin
     id 3 
     name ltibia
     direction 0.34202 -0.939693 0   
     length 7.7528   
     axis 0 0 20   XYZ
    dof rx
    limits (-10.0 170.0)
  end
  begin
     id 4 
     name lfoot
     direction 0.143696 -0.394801 0.90746   
     length 1.73269   
     axis -90 7.62852e-016 20   XYZ
    dof rx rz
    limits (-45.0 90.0)
           (-70.0 20.0)
  end
  begin
     id 5 
     name ltoes
     direction 1.53633e-011 -4.21912e-011 1   
     length 0.858383   
     axis -90 7.62852e-016 20   XYZ
    dof rx
    limits (-90.0 20.0)
  end
  begin
     id 6 
     name rhipjoint
     direction -0.515943 -0.73016 0.447961   
     length 2.2404  
     axis 0 0 0  XYZ 
  end
  begin
     id 7 
     name rfemur
     direction -0.34202 -0.939693 0   
     length 6.84377   
     axis 0 0 -20   XYZ
    dof rx ry rz
    limits (-160.0 20.0)
           (-70.0 70.0)
           (-70.0 60.0)
  end
  begin
     id 8 
     name rtibia
     direction -0.34202 -0.939693 0   
     length 7.57596   
     axis 0 0 -20   XYZ
    dof rx
    limits (-10.0 170.0)
 end
 begin
     id 9 
     name rfoot
     direction -0.0999372 -0.274575 0.956358   
     length 1.78783  
     axis -90 -7.62852e-016 -20   XYZ
    dof rx rz
    limits (-45.0 90.0)
           (-20.0 70.0)
  end
  begin
     id 10 
     name rtoes
     direction -1.53535e-011 -4.21895e-011 1   
     length 0.898614   
     axis -90 -7.62852e-016 -20   XYZ
    dof rx
    limits (-90.0 20.0)
  end
  begin
     id 11 
     name lowerback
     direction -0.011775 0.996164 -0.0867116   
     length 1.91499   
     axis 0 0 0   XYZ
    dof rx ry rz
    limits (-20.0 45.0)
           (-30.0 30.0)
           (-30.0 30.0)
  end
  begin
     id 12 
     name upperback
     direction -0.00189771 0.999673 -0.0254833   
     length 1.92213   
     axis 0 0 0   XYZ
    dof rx ry rz
    limits (-20.0 45.0)
           (-30.0 30.0)
           (-30.0 30.0)
  end
  begin
     id 13 
     name thorax
     direction 0.00335995 0.999878 0.0152401   
     length 1.93138   
     axis 0 0 0   XYZ
    dof rx ry rz
    limits (-20.0 45.0)
           (-30.0 30.0)
           (-30.0 30.0)
  end
  begin
     id 14 
     name lowerneck
     direction 0.00233191 0.998509 0.0545404   
     length 1.59408   
     axis 0 0 0   XYZ
    dof rx ry rz
    limits (-20.0 45.0)
           (-30.0 30.0)
           (-30.0 30.0)
  end
  begin
     id 15 
     name upperneck
     direction 0.07881 0.9956 -0.0506934   
     length 1.59344   
     axis 0 0 0   XYZ
    dof rx ry rz
    limits (-20.0 45.0)
           (-30.0 30.0)
           (-30.0 30.0)
  end
  begin
     id 16
     name head
     direction 0.0261681 0.999378 -0.0236299  
     length 1.60935  
     axis 0 0 0   XYZ
    dof rx ry rz
    limits (-20.0 45.0)
           (-30.0 30.0)
           (-30.0 30.0)
  end
  begin
     id 17 
     name lclavicle
     direction 0.96643 0.252035 0.0499195  
     length 3.82153  
     axis 0 0 0   XYZ
    dof ry rz
    limits (-20.0 10.0)
           (0.0 20.0)
  end
  begin
     id 18 
     name lhumerus
     direction 1 -4.48967e-011 -2.01614e-018   
     length 4.87796   
     axis 180 -30 -90   XYZ
    dof rx ry rz
    limits (-60.0 90.0)
           (-90.0 90.0)
           (-90.0 90.0)
  end
  begin
     id 19
     name lradius
     direction 1 -4.48958e-011 3.1409e-027   
     length 3.23169   
     axis 180 -30 -90   XYZ
    dof rx
    limits (-10.0 170.0)
  end
  begin
     id 20
     name lwrist
     direction 1 -4.48924e-011 1.0365e-027   
     length 1.61584   
     axis -2.56395e-016 90 90   XYZ
    dof ry
    limits (-180.0 0.0)
 end
  begin
     id 21 
     name lhand
     direction 1 -4.49055e-011 2.09488e-027   
     length 0.731324   
     axis -1.32723e-015 90 90   XYZ
    dof rx rz
    limits (-90.0 90.0)
           (-45.0 45.0)
  end
  begin
     id 22 
     name lfingers
     direction 1 -4.48935e-011 4.14981e-027   
     length 0.589612   
     axis -2.6545e-015 90 90   XYZ
    dof rx
    limits (0.0 90.0)
  end
  begin
     id 23
     name lthumb
     direction 0.707107 -6.35097e-011 0.707107   
     length 0.846569   
     axis -90 45 5.05613e-014   XYZ
    dof rx rz
    limits (-45.0 45.0)
           (-45.0 45.0)
  end
  begin
     id 24 
     name rclavicle
     direction -0.979337 0.201016 0.0221522   
     length 3.73827  
     axis 0 0 0   XYZ 
    dof ry rz
    limits (-10.0 20.0)
           (-20.0 0.0)
  end
  begin
     id 25 
     name rhumerus
     direction -1 -4.48971e-011 1.65907e-027  
     length 4.9143   
     axis 180 30 90   XYZ
    dof rx ry rz
    limits (-90.0 60.0)
           (-90.0 90.0)
           (-90.0 90.0)
  end
  begin
     id 26 
     name rradius
     direction -1 -4.4894e-011 2.17871e-028   
     length 3.29093   
     axis 180 30 90   XYZ
    dof rx
    limits (-10.0 170.0)
  end
  begin
     id 27 
     name rwrist
     direction -1 -4.48971e-011 1.04038e-027   
     length 1.64546   
     axis -2.56395e-016 -90 -90   XYZ
    dof ry
    limits (-180.0 0.0)
  end
  begin
     id 28
     name rhand
     direction -1 -4.49017e-011 2.08843e-027   
     length 0.54512   
     axis -1.32723e-015 -90 -90   XYZ
    dof rx rz
    limits (-90.0 90.0)
           (-45.0 45.0)
  end
  begin
     id 29
     name rfingers
     direction -1 -4.48918e-011 4.1439e-027   
     length 0.43949   
     axis -2.6545e-015 -90 -90   XYZ
    dof rx
    limits (0.0 90.0)
  end
  begin
     id 30
     name rthumb
     direction -0.707107 -6.35065e-011 0.707107   
     length 0.631022   
     axis -90 -45 -5.05613e-014   XYZ
    dof rx rz
    limits (-45.0 45.0)
           (-45.0 45.0)
  end
:hierarchy
  begin
    root lhipjoint rhipjoint lowerback
    lhipjoint lfemur
    lfemur ltibia
    ltibia lfoot
    lfoot ltoes
    rhipjoint rfemur
    rfemur rtibia
    rtibia rfoot
    rfoot rtoes
    lowerback upperback
    upperback thorax
    thorax lowerneck lclavicle rclavicle
    lowerneck upperneck
    upperneck head
    lclavicle lhumerus
    lhumerus lradius
    lradius lwrist
    lwrist lhand lthumb
    lhand lfingers
    rclavicle rhumerus
    rhumerus rradius
    rradius rwrist
    rwrist rhand rthumb
    rhand rfingers
  end

#!OML:ASF H:\BreakDance\Project 1\Capture day 1\Session 1\Male.ASF
:FULLY-SPECIFIED
:DEGREES
111
root 1.65327 14.2588 -1.16387 18.6288 -88.3401 -21.7148
lowerback 10.0787 0.47735 -1.12918
upperback 4.32792 0.375178 -0.259434
thorax -1.16122 0.113975 0.327522
lowerneck -7.82411 -1.84774 -3.88425
upperneck 5.19754 -2.84391 9.97574
head 3.02707 -1.12824 3.51887
rclavicle 1.2424e-015 3.77691e-015
rhumerus 18.6062 4.53261 -76.9769
rradius 89.3273
rwrist 6.36651
rhand -2.05661 -52.0958
rfingers 7.12502
rthumb 23.6191 -80.6651
lclavicle 1.2424e-015 3.77691e-015
lhumerus 25.2919 -7.34557 78.8467
lradius 81.55
lwrist -28.1647
lhand 14.361 -15.8052
lfingers 7.12502
lthumb 39.2499 9.64278
rfemur -36.1186 -20.7147 4.52884
rtibia 69.4725
rfoot -26.5378 0.853219
rtoes -18.99
lfemur -39.5988 20.9497 -6.92156
ltibia 72.6063
lfoot -30.104 -4.06504
ltoes -16.5096
112
root 1.65649 14.2593 -1.16269 22.2088 -88.327 -25.3249
lowerback 10.0635 0.476236 -1.08719
upperback 4.37084 0.378356 -0.17065
thorax -1.10879 0.114228 0.395446
lowerneck -7.95959 -1.84685 -3.90352
upperneck 5.26137 -2.83957 9.93762
head 3.06785 -1.12247 3.51005
rclavicle -5.06901e-015 7.15625e-015
rhumerus 18.69 4.57363 -76.8955
rradius 89.2825
rwrist 6.34913
rhand -2.077 -52.0841
rfingers 7.12502
rthumb 23.5995 -80.6559
lclavicle -5.06901e-015 7.15625e-015
lhumerus 25.3352 -7.24732 78.926
lradius 81.5493
lwrist -28.1628
lhand 14.3803 -15.8403
lfingers 7.12502
lthumb 39.268 9.60245
rfemur -36.1131 -20.66 4.64286
rtibia 69.4394
rfoot -26.5114 0.872366
rtoes -18.7475
lfemur -39.5751 20.9722 -6.79456
ltibia 72.6054
lfoot -30.0989 -4.12991
ltoes -16.3909
113
root 1.66021 14.2578 -1.16149 22.3092 -88.3064 -25.4623
lowerback 10.0644 0.467082 -1.11233
upperback 4.40088 0.363759 -0.126043
thorax -1.0784 0.105503 0.457292
lowerneck -7.99005 -1.8573 -3.88313
upperneck 5.26986 -2.85082 9.88017
head 3.075 -1.12852 3.4883
rclavicle -4.87022e-015 -1.39149e-015
rhumerus 18.7564 4.59872 -76.8546
rradius 89.2745
rwrist 6.38498
rhand -1.98315 -52.1418
rfingers 7.12502
rthumb 23.6896 -80.702
lclavicle -4.87022e-015 -1.39149e-015
lhumerus 25.3798 -7.17865 78.9579
lradius 81.5478
lwrist -28.165
lhand 14.316 -15.7684
lfingers 7.12502
lthumb 39.2074 9.69189
rfemur -36.064 -20.6646 4.64286
rtibia 69.3871
rfoot -26.4624 0.795605
rtoes -19.0671
lfemur -39.5807 20.9468 -6.77804
ltibia 72.6127
lfoot -30.1337 -4.17084
ltoes -16.6598
114
root 1.66329 14.2592 -1.16162 21.6084 -88.3129 -24.8014
lowerback 10.1147 0.46547 -1.10149
upperback 4.40437 0.360437 -0.163448
thorax -1.10192 0.104053 0.412716
lowerneck -8.02118 -1.87493 -3.86936
upperneck 5.27003 -2.88423 9.96747
head 3.08396 -1.1413 3.51085
rclavicle 3.8763e-015 3.77691e-015
rhumerus 18.7286 4.565 -76.9374
rradius 89.312
rwrist 6.44248
rhand -1.95873 -52.295
rfingers 7.12502
rthumb 23.713 -80.8521
lclavicle 3.8763e-015 3.77691e-015
lhumerus 25.4051 -7.20793 78.8619
lradius 81.5661
lwrist -28.1129
lhand 14.2694 -15.6855
lfingers 7.12502
lthumb 39.1635 9.7875
rfemur -35.9846 -20.6341 4.61089
rtibia 69.3185
rfoot -26.4287 0.780131
rtoes -19.0883
lfemur -39.5584 20.9329 -6.77797
ltibia 72.6089
lfoot -30.1492 -4.24184
ltoes -16.7736
115
root 1.66523 14.2601 -1.161 21.3118 -88.336 -24.5259
lowerback 10.1498 0.458333 -1.0896
upperback 4.40289 0.350583 -0.192663
thorax -1.12223 0.0994377 0.376772
lowerneck -8.0495 -1.88232 -3.87399
upperneck 5.26905 -2.90429 10.0823
head 3.09192 -1.147 3.54564
rclavicle 9.93923e-017 9.93923e-016
rhumerus 18.709 4.57399 -77.0246
rradius 89.2923
rwrist 6.48218
rhand -1.93397 -52.31
rfingers 7.12502
rthumb 23.7367 -80.864
lclavicle 9.93923e-017 9.93923e-016
lhumerus 25.3897 -7.20803 78.7907
lradius 81.5794
lwrist -28.0461
lhand 14.188 -15.6688
lfingers 7.12502
lthumb 39.0867 9.82634
rfemur -35.9506 -20.6074 4.58336
rtibia 69.2754
rfoot -26.4404 0.856691
rtoes -18.9035
lfemur -39.5104 20.9377 -6.77519
ltibia 72.6013
lfoot -30.1331 -4.33307
ltoes -16.2941
116
root 1.66703 14.2609 -1.15959 21.8906 -88.3501 -25.1351
lowerback 10.1634 0.441531 -1.0975
upperback 4.41957 0.327066 -0.170519
thorax -1.1122 0.0869384 0.406632
lowerneck -8.03907 -1.88782 -3.91147
upperneck 5.24133 -2.90927 10.126
head 3.08352 -1.14962 3.565
rclavicle -3.32964e-015 -2.38542e-015
rhumerus 18.7502 4.6536 -77.0379
rradius 89.231
rwrist 6.48602
rhand -1.88425 -52.1588
rfingers 7.12502
rthumb 23.7844 -80.7067
lclavicle -3.32964e-015 -2.38542e-015
lhumerus 25.3392 -7.1305 78.7781
lradius 81.5608
lwrist -28.0394
lhand 14.0174 -15.6761
lfingers 7.12502
lthumb 38.9259 9.86512
rfemur -35.9206 -20.6061 4.58293
rtibia 69.2522
rfoot -26.449 0.911882
rtoes -18.8492
lfemur -39.447 20.9508 -6.75699
ltibia 72.5811
lfoot -30.0564 -4.41954
ltoes -15.8405
117
root 1.66951 14.2645 -1.15805 22.9928 -88.3582 -26.2851
lowerback 10.1739 0.444398 -1.05305
upperback 4.45652 0.333245 -0.172028
thorax -1.07951 0.0894688 0.379438
lowerneck -8.07663 -1.90217 -3.93306
upperneck 5.21821 -2.9291 10.1843
head 3.08562 -1.15747 3.58517
rclavicle 3.8266e-015 -3.37934e-015
rhumerus 18.7471 4.64297 -77.0578
rradius 89.2481
rwrist 6.5054
rhand -1.83363 -52.0358
rfingers 7.12502
rthumb 23.833 -80.5773
lclavicle 3.8266e-015 -3.37934e-015
lhumerus 25.2942 -7.08607 78.7975
lradius 81.5304
lwrist -28.0817
lhand 13.8817 -15.736
lfingers 7.12502
lthumb 38.798 9.84156
rfemur -35.8686 -20.5718 4.60334
rtibia 69.2439
rfoot -26.4366 0.931599
rtoes -18.5586
lfemur -39.3725 20.9458 -6.71851
ltibia 72.5492
lfoot -30.034 -4.52649
ltoes -15.6059
118
root 1.67164 14.2657 -1.15656 22.9304 -88.3825 -26.2368
lowerback 10.1705 0.465589 -1.00604
upperback 4.44997 0.365035 -0.215452
thorax -1.08433 0.106375 0.304693
lowerneck -8.0812 -1.93018 -3.88888
upperneck 5.23593 -2.9783 10.2311
head 3.09556 -1.17917 3.58953
rclavicle 1.93815e-015 2.38542e-015
rhumerus 18.6259 4.56618 -77.0898
rradius 89.2969
rwrist 6.53567
rhand -1.73787 -52.0866
rfingers 7.12502
rthumb 23.9248 -80.6161
lclavicle 1.93815e-015 2.38542e-015
lhumerus 25.2329 -7.12392 78.8138
lradius 81.5333
lwrist -28.1635
lhand 13.8181 -15.8167
lfingers 7.12502
lthumb 38.738 9.7779
rfemur -35.8587 -20.5441 4.58802
rtibia 69.2471
rfoot -26.448 0.94004
rtoes -18.3954
lfemur -39.3454 20.9621 -6.74891
ltibia 72.5248
lfoot -30.1234 -4.42688
ltoes -16.0367
119
root 1.67549 14.2638 -1.15496 20.9556 -88.3638 -24.2292
lowerback 10.1752 0.465644 -0.988701
upperback 4.40764 0.36752 -0.250916
thorax -1.13047 0.109237 0.257921
lowerneck -7.92176 -1.95371 -3.9871
upperneck 5.12496 -3.00803 10.4054
head 3.04266 -1.19707 3.6584
rclavicle -1.98785e-016 5.1684e-015
rhumerus 18.5164 4.50176 -77.0858
rradius 89.3114
rwrist 6.54969
rhand -1.6008 -52.1218
rfingers 7.12502
rthumb 24.0562 -80.634
lclavicle -1.98785e-016 5.1684e-015
lhumerus 25.2296 -7.20304 78.7793
lradius 81.5269
lwrist -28.1452
lhand 13.7528 -15.9201
lfingers 7.12502
lthumb 38.6764 9.69189
rfemur -35.8675 -20.6135 4.52781
rtibia 69.2415
rfoot -26.4521 0.984159
rtoes -18.3578
lfemur -39.4166 20.9323 -6.85003
ltibia 72.5207
lfoot -30.1078 -4.21092
ltoes -16.4709
120
root 1.68113 14.2631 -1.15639 20.7922 -88.2741 -24.0643
lowerback 10.2273 0.449982 -0.952318
upperback 4.38195 0.350269 -0.244107
thorax -1.18521 0.101615 0.246095
lowerneck -7.84051 -2.0013 -3.97586
upperneck 5.04116 -3.06947 10.4219
head 3.00893 -1.23114 3.65859
rclavicle 4.47266e-016 1.05356e-014
rhumerus 18.4789 4.44329 -77.0671
rradius 89.3011
rwrist 6.52708
rhand -1.57106 -52.0712
rfingers 7.12502
rthumb 24.0847 -80.5797
lclavicle 4.47266e-016 1.05356e-014
lhumerus 25.2535 -7.28816 78.7062
lradius 81.5013
lwrist -27.9838
lhand 13.7077 -15.9394
lfingers 7.12502
lthumb 38.6339 9.68455
rfemur -35.8476 -20.6645 4.55084
rtibia 69.2317
rfoot -26.4222 1.01473
rtoes -18.1689
lfemur -39.4877 20.8609 -6.83586
ltibia 72.5242
lfoot -30.076 -4.08961
ltoes -16.5119
121
root 1.68548 14.2632 -1.15873 22.3047 -88.2083 -25.6066
lowerback 10.2892 0.422017 -0.900124
upperback 4.36275 0.31746 -0.247565
thorax -1.23825 0.0862061 0.216509
lowerneck -7.85663 -2.03289 -3.77251
upperneck 5.0879 -3.12571 10.2663
head 3.02398 -1.2592 3.57401
rclavicle 1.63997e-015 -1.19271e-015
rhumerus 18.425 4.46347 -77.0972
rradius 89.2995
rwrist 6.50545
rhand -1.56079 -52.0301
rfingers 7.12502
rthumb 24.0946 -80.5373
lclavicle 1.63997e-015 -1.19271e-015
lhumerus 25.2047 -7.31322 78.6198
lradius 81.5013
lwrist -27.8804
lhand 13.7429 -15.9003
lfingers 7.12502
lthumb 38.6671 9.71432
rfemur -35.8462 -20.6531 4.63116
rtibia 69.222
rfoot -26.3843 0.938469
rtoes -18.3457
lfemur -39.4978 20.8184 -6.74642
ltibia 72.5226
lfoot -30.1417 -3.98326
ltoes -16.749
122
root 1.68951 14.2622 -1.15673 19.7244 -88.209 -23.0104
lowerback 10.2819 0.394202 -0.950505
upperback 4.36083 0.274914 -0.296935
thorax -1.2358 0.0648678 0.198588
lowerneck -7.91125 -2.01492 -3.64381
upperneck 5.14754 -3.11592 10.2077
head 3.04726 -1.25134 3.53499
rclavicle 2.13694e-015 4.37326e-015
rhumerus 18.4402 4.50652 -77.1223
rradius 89.2647
rwrist 6.49308
rhand -1.52229 -52.0011
rfingers 7.12502
rthumb 24.1315 -80.5033
lclavicle 2.13694e-015 4.37326e-015
lhumerus 25.1788 -7.2802 78.5732
lradius 81.4852
lwrist -27.9104
lhand 13.72 -15.9541
lfingers 7.12502
lthumb 38.6454 9.66661
rfemur -35.8877 -20.7083 4.54077
rtibia 69.2252
rfoot -26.3605 0.897906
rtoes -18.7279
lfemur -39.527 20.7436 -6.8568
ltibia 72.5178
lfoot -30.1746 -4.02284
ltoes -16.6174
123
root 1.69343 14.2621 -1.1549 17.5782 -88.204 -20.8251
lowerback 10.2222 0.398089 -1.00347
upperback 4.37614 0.275595 -0.311638
thorax -1.18746 0.0644986 0.213334
lowerneck -7.97931 -2.04128 -3.52742
upperneck 5.17566 -3.1565 10.0965
head 3.06612 -1.27054 3.47902
rclavicle -4.47266e-016 3.97569e-016
rhumerus 18.4731 4.48881 -77.0525
rradius 89.2645
rwrist 6.42189
rhand -1.56561 -52.0277
rfingers 7.12502
rthumb 24.09 -80.5355
lclavicle -4.47266e-016 3.97569e-016
lhumerus 25.2312 -7.30505 78.5242
lradius 81.4661
lwrist -27.8928
lhand 13.6579 -16.0025
lfingers 7.12502
lthumb 38.5868 9.6346
rfemur -35.9457 -20.7513 4.47716
rtibia 69.2512
rfoot -26.3496 0.913082
rtoes -18.7508
lfemur -39.5861 20.695 -6.96264
ltibia 72.5131
lfoot -30.175 -4.14262
ltoes -16.2817
124
root 1.69798 14.2625 -1.15552 19.6578 -88.1777 -22.8662
lowerback 10.2069 0.405409 -0.915633
upperback 4.35541 0.294695 -0.312276
thorax -1.20041 0.0755606 0.161202
lowerneck -7.92172 -2.09656 -3.45186
upperneck 5.11107 -3.23292 10.0685
head 3.04105 -1.31133 3.45407
rclavicle 3.03147e-015 -1.11319e-014
rhumerus 18.4217 4.46415 -76.9715
rradius 89.3255
rwrist 6.30552
rhand -1.58504 -52.0228
rfingers 7.12502
rthumb 24.0713 -80.533
lclavicle 3.03147e-015 -1.11319e-014
lhumerus 25.2404 -7.38352 78.4384
lradius 81.4874
lwrist -27.8436
lhand 13.6606 -16.0305
lfingers 7.12502
lthumb 38.5895 9.60587
rfemur -36.0248 -20.7091 4.57842
rtibia 69.2769
rfoot -26.3236 0.995037
rtoes -18.3596
lfemur -39.6793 20.6989 -6.90938
ltibia 72.5215
lfoot -30.1393 -3.99956
ltoes -16.5948
